<svg xmlns="http://www.w3.org/2000/svg" xmlns:xlink="http://www.w3.org/1999/xlink" width="3840" zoomAndPan="magnify" viewBox="0 0 2880 1619.99993" height="2160" preserveAspectRatio="xMidYMid meet" version="1.0"><defs><clipPath id="1b07d48020"><path d="M 0 0 L 2879 0 L 2879 900.039062 L 0 900.039062 Z M 0 0 " clip-rule="nonzero"/></clipPath><clipPath id="7950a149ab"><path d="M 1897 0 L 2880 0 L 2880 1070 L 1897 1070 Z M 1897 0 " clip-rule="nonzero"/></clipPath><clipPath id="7b55cd5199"><path d="M 1897.054688 -90.820312 L 2082.808594 -247.488281 L 3130.527344 994.730469 L 2944.777344 1151.398438 Z M 1897.054688 -90.820312 " clip-rule="nonzero"/></clipPath><clipPath id="4297419db3"><path d="M 1989.933594 -169.15625 L 1897.054688 -90.820312 L 3034.386719 1069.195312 L 3127.265625 990.859375 L 1989.933594 -169.15625 " clip-rule="nonzero"/></clipPath><clipPath id="fcd392fed8"><path d="M 2030 0 L 2880 0 L 2880 927 L 2030 927 Z M 2030 0 " clip-rule="nonzero"/></clipPath><clipPath id="8061e68b7a"><path d="M 2030.640625 -233.265625 L 2216.390625 -389.933594 L 3264.113281 852.289062 L 3078.359375 1008.957031 Z M 2030.640625 -233.265625 " clip-rule="nonzero"/></clipPath><clipPath id="01c9201896"><path d="M 2123.515625 -311.597656 L 2030.640625 -233.265625 L 3167.972656 926.75 L 3260.847656 848.417969 L 2123.515625 -311.597656 " clip-rule="nonzero"/></clipPath><clipPath id="4d31856266"><path d="M 2164 0 L 2880 0 L 2880 785 L 2164 785 Z M 2164 0 " clip-rule="nonzero"/></clipPath><clipPath id="acd61e33e6"><path d="M 2164.222656 -375.707031 L 2349.976562 -532.375 L 3397.695312 709.84375 L 3211.941406 866.511719 Z M 2164.222656 -375.707031 " clip-rule="nonzero"/></clipPath><clipPath id="f12e766ecb"><path d="M 2257.097656 -454.042969 L 2164.222656 -375.707031 L 3301.554688 784.308594 L 3394.429688 705.972656 L 2257.097656 -454.042969 " clip-rule="nonzero"/></clipPath><clipPath id="8226a4e0e8"><path d="M 425.4375 614.320312 L 996.875 614.320312 L 996.875 1185.757812 L 425.4375 1185.757812 Z M 425.4375 614.320312 " clip-rule="nonzero"/></clipPath><clipPath id="39ad695f3e"><path d="M 711.15625 614.320312 C 553.359375 614.320312 425.4375 742.242188 425.4375 900.039062 C 425.4375 1057.835938 553.359375 1185.757812 711.15625 1185.757812 C 868.953125 1185.757812 996.875 1057.835938 996.875 900.039062 C 996.875 742.242188 868.953125 614.320312 711.15625 614.320312 " clip-rule="nonzero"/></clipPath></defs><rect x="-288" width="3456" fill="#ffffff" y="-161.999993" height="1943.999916" fill-opacity="1"/><rect x="-288" width="3456" fill="#ffffff" y="-161.999993" height="1943.999916" fill-opacity="1"/><rect x="-288" width="3456" fill="#ffffff" y="-161.999993" height="1943.999916" fill-opacity="1"/><g clip-path="url(#1b07d48020)"><path fill="#38b6ff" d="M 0 0 L 2878.03125 0 L 2878.03125 903.65625 L 0 903.65625 Z M 0 0 " fill-opacity="1" fill-rule="nonzero"/></g><g clip-path="url(#7950a149ab)"><g clip-path="url(#7b55cd5199)"><g clip-path="url(#4297419db3)"><path fill="#6adaff" d="M 1897.054688 -90.820312 L 2082.808594 -247.488281 L 3125.632812 988.925781 L 2939.878906 1145.59375 Z M 1897.054688 -90.820312 " fill-opacity="1" fill-rule="nonzero"/></g></g></g><g clip-path="url(#fcd392fed8)"><g clip-path="url(#8061e68b7a)"><g clip-path="url(#01c9201896)"><path fill="#6adaff" d="M 2030.640625 -233.265625 L 2216.390625 -389.933594 L 3259.214844 846.480469 L 3073.464844 1003.152344 Z M 2030.640625 -233.265625 " fill-opacity="1" fill-rule="nonzero"/></g></g></g><g clip-path="url(#4d31856266)"><g clip-path="url(#acd61e33e6)"><g clip-path="url(#f12e766ecb)"><path fill="#6adaff" d="M 2164.222656 -375.707031 L 2349.976562 -532.375 L 3392.800781 704.039062 L 3207.046875 860.707031 Z M 2164.222656 -375.707031 " fill-opacity="1" fill-rule="nonzero"/></g></g></g><g clip-path="url(#8226a4e0e8)"><g clip-path="url(#39ad695f3e)"><path fill="#ffffff" d="M 425.4375 614.320312 L 996.875 614.320312 L 996.875 1185.757812 L 425.4375 1185.757812 Z M 425.4375 614.320312 " fill-opacity="1" fill-rule="nonzero"/></g></g><path fill="#ff914d" d="M 1123.289062 744.75 L 1123.292969 744.75 C 1124.363281 744.75 1125.429688 744.800781 1126.492188 744.90625 C 1127.554688 745.011719 1128.609375 745.167969 1129.660156 745.375 C 1130.707031 745.585938 1131.742188 745.84375 1132.761719 746.15625 C 1133.785156 746.464844 1134.789062 746.824219 1135.777344 747.234375 C 1136.765625 747.640625 1137.730469 748.097656 1138.671875 748.601562 C 1139.613281 749.105469 1140.527344 749.65625 1141.417969 750.25 C 1142.304688 750.84375 1143.164062 751.476562 1143.988281 752.15625 C 1144.8125 752.832031 1145.605469 753.550781 1146.359375 754.304688 C 1147.117188 755.0625 1147.832031 755.851562 1148.511719 756.679688 C 1149.1875 757.503906 1149.824219 758.359375 1150.417969 759.25 C 1151.011719 760.136719 1151.558594 761.054688 1152.0625 761.996094 C 1152.566406 762.9375 1153.023438 763.902344 1153.429688 764.890625 C 1153.839844 765.878906 1154.199219 766.882812 1154.507812 767.90625 C 1154.820312 768.925781 1155.078125 769.960938 1155.289062 771.011719 C 1155.496094 772.058594 1155.652344 773.113281 1155.757812 774.175781 C 1155.863281 775.242188 1155.914062 776.304688 1155.914062 777.375 C 1155.914062 778.445312 1155.863281 779.507812 1155.757812 780.574219 C 1155.652344 781.636719 1155.496094 782.691406 1155.289062 783.738281 C 1155.078125 784.789062 1154.820312 785.824219 1154.507812 786.84375 C 1154.199219 787.867188 1153.839844 788.871094 1153.429688 789.859375 C 1153.023438 790.847656 1152.566406 791.8125 1152.0625 792.753906 C 1151.558594 793.695312 1151.011719 794.613281 1150.417969 795.5 C 1149.824219 796.390625 1149.1875 797.246094 1148.511719 798.070312 C 1147.832031 798.898438 1147.117188 799.6875 1146.359375 800.445312 C 1145.605469 801.199219 1144.8125 801.917969 1143.988281 802.59375 C 1143.164062 803.273438 1142.304688 803.90625 1141.417969 804.5 C 1140.527344 805.09375 1139.613281 805.644531 1138.671875 806.148438 C 1137.730469 806.652344 1136.765625 807.109375 1135.777344 807.515625 C 1134.789062 807.925781 1133.785156 808.285156 1132.761719 808.59375 C 1131.742188 808.90625 1130.707031 809.164062 1129.660156 809.371094 C 1128.609375 809.582031 1127.554688 809.738281 1126.492188 809.84375 C 1125.429688 809.949219 1124.363281 810 1123.292969 810 L 1123.289062 810 C 1122.21875 810 1121.152344 809.949219 1120.089844 809.84375 C 1119.027344 809.738281 1117.972656 809.582031 1116.925781 809.371094 C 1115.875 809.164062 1114.839844 808.90625 1113.820312 808.59375 C 1112.796875 808.285156 1111.792969 807.925781 1110.804688 807.515625 C 1109.816406 807.109375 1108.851562 806.652344 1107.910156 806.148438 C 1106.96875 805.644531 1106.054688 805.09375 1105.164062 804.5 C 1104.277344 803.90625 1103.421875 803.273438 1102.59375 802.59375 C 1101.769531 801.917969 1100.976562 801.199219 1100.222656 800.445312 C 1099.46875 799.6875 1098.75 798.898438 1098.074219 798.070312 C 1097.394531 797.246094 1096.757812 796.390625 1096.164062 795.5 C 1095.570312 794.613281 1095.023438 793.695312 1094.519531 792.753906 C 1094.015625 791.8125 1093.558594 790.847656 1093.152344 789.859375 C 1092.742188 788.871094 1092.382812 787.867188 1092.074219 786.84375 C 1091.761719 785.824219 1091.503906 784.789062 1091.296875 783.738281 C 1091.085938 782.691406 1090.929688 781.636719 1090.824219 780.574219 C 1090.71875 779.507812 1090.667969 778.445312 1090.667969 777.375 C 1090.667969 776.304688 1090.71875 775.242188 1090.824219 774.175781 C 1090.929688 773.113281 1091.085938 772.058594 1091.296875 771.011719 C 1091.503906 769.960938 1091.761719 768.925781 1092.074219 767.90625 C 1092.382812 766.882812 1092.742188 765.878906 1093.152344 764.890625 C 1093.558594 763.902344 1094.015625 762.9375 1094.519531 761.996094 C 1095.023438 761.054688 1095.570312 760.136719 1096.164062 759.25 C 1096.757812 758.359375 1097.394531 757.503906 1098.074219 756.679688 C 1098.75 755.851562 1099.46875 755.0625 1100.222656 754.304688 C 1100.976562 753.550781 1101.769531 752.832031 1102.59375 752.15625 C 1103.421875 751.476562 1104.277344 750.84375 1105.164062 750.25 C 1106.054688 749.65625 1106.96875 749.105469 1107.910156 748.601562 C 1108.851562 748.097656 1109.816406 747.640625 1110.804688 747.234375 C 1111.792969 746.824219 1112.796875 746.464844 1113.820312 746.15625 C 1114.839844 745.84375 1115.875 745.585938 1116.925781 745.375 C 1117.972656 745.167969 1119.027344 745.011719 1120.089844 744.90625 C 1121.152344 744.800781 1122.21875 744.75 1123.289062 744.75 Z M 1253.773438 744.75 L 1253.78125 744.75 C 1254.847656 744.75 1255.914062 744.800781 1256.976562 744.90625 C 1258.039062 745.011719 1259.097656 745.167969 1260.144531 745.375 C 1261.191406 745.585938 1262.226562 745.84375 1263.25 746.15625 C 1264.273438 746.464844 1265.277344 746.824219 1266.261719 747.234375 C 1267.25 747.640625 1268.214844 748.097656 1269.15625 748.601562 C 1270.097656 749.105469 1271.015625 749.65625 1271.902344 750.25 C 1272.792969 750.84375 1273.648438 751.476562 1274.472656 752.15625 C 1275.300781 752.832031 1276.089844 753.550781 1276.847656 754.304688 C 1277.601562 755.0625 1278.316406 755.851562 1278.996094 756.679688 C 1279.671875 757.503906 1280.308594 758.359375 1280.902344 759.25 C 1281.496094 760.136719 1282.042969 761.054688 1282.546875 761.996094 C 1283.050781 762.9375 1283.507812 763.902344 1283.917969 764.890625 C 1284.324219 765.878906 1284.683594 766.882812 1284.996094 767.90625 C 1285.304688 768.925781 1285.566406 769.960938 1285.773438 771.011719 C 1285.980469 772.058594 1286.136719 773.113281 1286.242188 774.175781 C 1286.347656 775.242188 1286.398438 776.304688 1286.398438 777.375 C 1286.398438 778.445312 1286.347656 779.507812 1286.242188 780.574219 C 1286.136719 781.636719 1285.980469 782.691406 1285.773438 783.738281 C 1285.566406 784.789062 1285.304688 785.824219 1284.996094 786.84375 C 1284.683594 787.867188 1284.324219 788.871094 1283.917969 789.859375 C 1283.507812 790.847656 1283.050781 791.8125 1282.546875 792.753906 C 1282.042969 793.695312 1281.496094 794.613281 1280.902344 795.5 C 1280.308594 796.390625 1279.671875 797.246094 1278.996094 798.070312 C 1278.316406 798.898438 1277.601562 799.6875 1276.847656 800.445312 C 1276.089844 801.199219 1275.300781 801.917969 1274.472656 802.59375 C 1273.648438 803.273438 1272.792969 803.90625 1271.902344 804.5 C 1271.015625 805.09375 1270.097656 805.644531 1269.15625 806.148438 C 1268.214844 806.652344 1267.25 807.109375 1266.261719 807.515625 C 1265.277344 807.925781 1264.273438 808.285156 1263.25 808.59375 C 1262.226562 808.90625 1261.191406 809.164062 1260.144531 809.371094 C 1259.097656 809.582031 1258.039062 809.738281 1256.976562 809.84375 C 1255.914062 809.949219 1254.847656 810 1253.78125 810 L 1253.773438 810 C 1252.707031 810 1251.640625 809.949219 1250.578125 809.84375 C 1249.511719 809.738281 1248.457031 809.582031 1247.410156 809.371094 C 1246.363281 809.164062 1245.328125 808.90625 1244.304688 808.59375 C 1243.28125 808.285156 1242.277344 807.925781 1241.289062 807.515625 C 1240.304688 807.109375 1239.339844 806.652344 1238.398438 806.148438 C 1237.453125 805.644531 1236.539062 805.09375 1235.652344 804.5 C 1234.761719 803.90625 1233.90625 803.273438 1233.078125 802.59375 C 1232.253906 801.917969 1231.464844 801.199219 1230.707031 800.445312 C 1229.953125 799.6875 1229.234375 798.898438 1228.558594 798.070312 C 1227.878906 797.246094 1227.246094 796.390625 1226.652344 795.5 C 1226.058594 794.613281 1225.507812 793.695312 1225.003906 792.753906 C 1224.503906 791.8125 1224.046875 790.847656 1223.636719 789.859375 C 1223.226562 788.871094 1222.867188 787.867188 1222.558594 786.84375 C 1222.25 785.824219 1221.988281 784.789062 1221.78125 783.738281 C 1221.570312 782.691406 1221.414062 781.636719 1221.3125 780.574219 C 1221.207031 779.507812 1221.152344 778.445312 1221.152344 777.375 C 1221.152344 776.304688 1221.207031 775.242188 1221.3125 774.175781 C 1221.414062 773.113281 1221.570312 772.058594 1221.78125 771.011719 C 1221.988281 769.960938 1222.25 768.925781 1222.558594 767.90625 C 1222.867188 766.882812 1223.226562 765.878906 1223.636719 764.890625 C 1224.046875 763.902344 1224.503906 762.9375 1225.003906 761.996094 C 1225.507812 761.054688 1226.058594 760.136719 1226.652344 759.25 C 1227.246094 758.359375 1227.878906 757.503906 1228.558594 756.679688 C 1229.234375 755.851562 1229.953125 755.0625 1230.707031 754.304688 C 1231.464844 753.550781 1232.253906 752.832031 1233.078125 752.15625 C 1233.90625 751.476562 1234.761719 750.84375 1235.652344 750.25 C 1236.539062 749.65625 1237.453125 749.105469 1238.398438 748.601562 C 1239.339844 748.097656 1240.304688 747.640625 1241.289062 747.234375 C 1242.277344 746.824219 1243.28125 746.464844 1244.304688 746.15625 C 1245.328125 745.84375 1246.363281 745.585938 1247.410156 745.375 C 1248.457031 745.167969 1249.511719 745.011719 1250.578125 744.90625 C 1251.640625 744.800781 1252.707031 744.75 1253.773438 744.75 Z M 1384.257812 744.75 L 1384.265625 744.75 C 1385.335938 744.75 1386.398438 744.800781 1387.464844 744.90625 C 1388.527344 745.011719 1389.582031 745.167969 1390.628906 745.375 C 1391.675781 745.585938 1392.710938 745.84375 1393.734375 746.15625 C 1394.757812 746.464844 1395.761719 746.824219 1396.75 747.234375 C 1397.734375 747.640625 1398.699219 748.097656 1399.644531 748.601562 C 1400.585938 749.105469 1401.5 749.65625 1402.386719 750.25 C 1403.277344 750.84375 1404.132812 751.476562 1404.960938 752.15625 C 1405.785156 752.832031 1406.574219 753.550781 1407.332031 754.304688 C 1408.085938 755.0625 1408.804688 755.851562 1409.480469 756.679688 C 1410.160156 757.503906 1410.792969 758.359375 1411.386719 759.25 C 1411.980469 760.136719 1412.53125 761.054688 1413.035156 761.996094 C 1413.539062 762.9375 1413.992188 763.902344 1414.402344 764.890625 C 1414.8125 765.878906 1415.171875 766.882812 1415.480469 767.90625 C 1415.792969 768.925781 1416.050781 769.960938 1416.257812 771.011719 C 1416.46875 772.058594 1416.625 773.113281 1416.730469 774.175781 C 1416.832031 775.242188 1416.886719 776.304688 1416.886719 777.375 C 1416.886719 778.445312 1416.832031 779.507812 1416.730469 780.574219 C 1416.625 781.636719 1416.46875 782.691406 1416.257812 783.738281 C 1416.050781 784.789062 1415.792969 785.824219 1415.480469 786.84375 C 1415.171875 787.867188 1414.8125 788.871094 1414.402344 789.859375 C 1413.992188 790.847656 1413.539062 791.8125 1413.035156 792.753906 C 1412.53125 793.695312 1411.980469 794.613281 1411.386719 795.5 C 1410.792969 796.390625 1410.160156 797.246094 1409.480469 798.070312 C 1408.804688 798.898438 1408.085938 799.6875 1407.332031 800.445312 C 1406.574219 801.199219 1405.785156 801.917969 1404.960938 802.59375 C 1404.132812 803.273438 1403.277344 803.90625 1402.386719 804.5 C 1401.5 805.09375 1400.585938 805.644531 1399.644531 806.148438 C 1398.699219 806.652344 1397.734375 807.109375 1396.75 807.515625 C 1395.761719 807.925781 1394.757812 808.285156 1393.734375 808.59375 C 1392.710938 808.90625 1391.675781 809.164062 1390.628906 809.371094 C 1389.582031 809.582031 1388.527344 809.738281 1387.464844 809.84375 C 1386.398438 809.949219 1385.335938 810 1384.265625 810 L 1384.257812 810 C 1383.191406 810 1382.125 809.949219 1381.0625 809.84375 C 1380 809.738281 1378.941406 809.582031 1377.894531 809.371094 C 1376.847656 809.164062 1375.8125 808.90625 1374.789062 808.59375 C 1373.769531 808.285156 1372.761719 807.925781 1371.777344 807.515625 C 1370.789062 807.109375 1369.824219 806.652344 1368.882812 806.148438 C 1367.941406 805.644531 1367.023438 805.09375 1366.136719 804.5 C 1365.25 803.90625 1364.390625 803.273438 1363.566406 802.59375 C 1362.738281 801.917969 1361.949219 801.199219 1361.195312 800.445312 C 1360.4375 799.6875 1359.722656 798.898438 1359.042969 798.070312 C 1358.367188 797.246094 1357.730469 796.390625 1357.136719 795.5 C 1356.542969 794.613281 1355.996094 793.695312 1355.492188 792.753906 C 1354.988281 791.8125 1354.53125 790.847656 1354.121094 789.859375 C 1353.714844 788.871094 1353.355469 787.867188 1353.042969 786.84375 C 1352.734375 785.824219 1352.476562 784.789062 1352.265625 783.738281 C 1352.058594 782.691406 1351.902344 781.636719 1351.796875 780.574219 C 1351.691406 779.507812 1351.640625 778.445312 1351.640625 777.375 C 1351.640625 776.304688 1351.691406 775.242188 1351.796875 774.175781 C 1351.902344 773.113281 1352.058594 772.058594 1352.265625 771.011719 C 1352.476562 769.960938 1352.734375 768.925781 1353.042969 767.90625 C 1353.355469 766.882812 1353.714844 765.878906 1354.121094 764.890625 C 1354.53125 763.902344 1354.988281 762.9375 1355.492188 761.996094 C 1355.996094 761.054688 1356.542969 760.136719 1357.136719 759.25 C 1357.730469 758.359375 1358.367188 757.503906 1359.042969 756.679688 C 1359.722656 755.851562 1360.4375 755.0625 1361.195312 754.304688 C 1361.949219 753.550781 1362.738281 752.832031 1363.566406 752.15625 C 1364.390625 751.476562 1365.25 750.84375 1366.136719 750.25 C 1367.023438 749.65625 1367.941406 749.105469 1368.882812 748.601562 C 1369.824219 748.097656 1370.789062 747.640625 1371.777344 747.234375 C 1372.761719 746.824219 1373.769531 746.464844 1374.789062 746.15625 C 1375.8125 745.84375 1376.847656 745.585938 1377.894531 745.375 C 1378.941406 745.167969 1380 745.011719 1381.0625 744.90625 C 1382.125 744.800781 1383.191406 744.75 1384.257812 744.75 Z M 1514.746094 744.75 L 1514.75 744.75 C 1515.820312 744.75 1516.886719 744.800781 1517.949219 744.90625 C 1519.011719 745.011719 1520.066406 745.167969 1521.117188 745.375 C 1522.164062 745.585938 1523.199219 745.84375 1524.21875 746.15625 C 1525.242188 746.464844 1526.246094 746.824219 1527.234375 747.234375 C 1528.222656 747.640625 1529.1875 748.097656 1530.128906 748.601562 C 1531.070312 749.105469 1531.984375 749.65625 1532.875 750.25 C 1533.761719 750.84375 1534.621094 751.476562 1535.445312 752.15625 C 1536.269531 752.832031 1537.0625 753.550781 1537.816406 754.304688 C 1538.574219 755.0625 1539.289062 755.851562 1539.96875 756.679688 C 1540.644531 757.503906 1541.28125 758.359375 1541.875 759.25 C 1542.46875 760.136719 1543.015625 761.054688 1543.519531 761.996094 C 1544.023438 762.9375 1544.480469 763.902344 1544.886719 764.890625 C 1545.296875 765.878906 1545.65625 766.882812 1545.964844 767.90625 C 1546.277344 768.925781 1546.535156 769.960938 1546.746094 771.011719 C 1546.953125 772.058594 1547.109375 773.113281 1547.214844 774.175781 C 1547.320312 775.242188 1547.371094 776.304688 1547.371094 777.375 C 1547.371094 778.445312 1547.320312 779.507812 1547.214844 780.574219 C 1547.109375 781.636719 1546.953125 782.691406 1546.746094 783.738281 C 1546.535156 784.789062 1546.277344 785.824219 1545.964844 786.84375 C 1545.65625 787.867188 1545.296875 788.871094 1544.886719 789.859375 C 1544.480469 790.847656 1544.023438 791.8125 1543.519531 792.753906 C 1543.015625 793.695312 1542.46875 794.613281 1541.875 795.5 C 1541.28125 796.390625 1540.644531 797.246094 1539.96875 798.070312 C 1539.289062 798.898438 1538.574219 799.6875 1537.816406 800.445312 C 1537.0625 801.199219 1536.269531 801.917969 1535.445312 802.59375 C 1534.621094 803.273438 1533.761719 803.90625 1532.875 804.5 C 1531.984375 805.09375 1531.070312 805.644531 1530.128906 806.148438 C 1529.1875 806.652344 1528.222656 807.109375 1527.234375 807.515625 C 1526.246094 807.925781 1525.242188 808.285156 1524.21875 808.59375 C 1523.199219 808.90625 1522.164062 809.164062 1521.117188 809.371094 C 1520.066406 809.582031 1519.011719 809.738281 1517.949219 809.84375 C 1516.886719 809.949219 1515.820312 810 1514.75 810 L 1514.746094 810 C 1513.675781 810 1512.609375 809.949219 1511.546875 809.84375 C 1510.484375 809.738281 1509.429688 809.582031 1508.382812 809.371094 C 1507.332031 809.164062 1506.296875 808.90625 1505.277344 808.59375 C 1504.253906 808.285156 1503.25 807.925781 1502.261719 807.515625 C 1501.273438 807.109375 1500.308594 806.652344 1499.367188 806.148438 C 1498.425781 805.644531 1497.511719 805.09375 1496.621094 804.5 C 1495.734375 803.90625 1494.878906 803.273438 1494.050781 802.59375 C 1493.226562 801.917969 1492.433594 801.199219 1491.679688 800.445312 C 1490.925781 799.6875 1490.207031 798.898438 1489.53125 798.070312 C 1488.851562 797.246094 1488.214844 796.390625 1487.621094 795.5 C 1487.027344 794.613281 1486.480469 793.695312 1485.976562 792.753906 C 1485.472656 791.8125 1485.015625 790.847656 1484.609375 789.859375 C 1484.199219 788.871094 1483.839844 787.867188 1483.53125 786.84375 C 1483.21875 785.824219 1482.960938 784.789062 1482.753906 783.738281 C 1482.542969 782.691406 1482.386719 781.636719 1482.28125 780.574219 C 1482.175781 779.507812 1482.125 778.445312 1482.125 777.375 C 1482.125 776.304688 1482.175781 775.242188 1482.28125 774.175781 C 1482.386719 773.113281 1482.542969 772.058594 1482.753906 771.011719 C 1482.960938 769.960938 1483.21875 768.925781 1483.53125 767.90625 C 1483.839844 766.882812 1484.199219 765.878906 1484.609375 764.890625 C 1485.015625 763.902344 1485.472656 762.9375 1485.976562 761.996094 C 1486.480469 761.054688 1487.027344 760.136719 1487.621094 759.25 C 1488.214844 758.359375 1488.851562 757.503906 1489.53125 756.679688 C 1490.207031 755.851562 1490.925781 755.0625 1491.679688 754.304688 C 1492.433594 753.550781 1493.226562 752.832031 1494.050781 752.15625 C 1494.878906 751.476562 1495.734375 750.84375 1496.621094 750.25 C 1497.511719 749.65625 1498.425781 749.105469 1499.367188 748.601562 C 1500.308594 748.097656 1501.273438 747.640625 1502.261719 747.234375 C 1503.25 746.824219 1504.253906 746.464844 1505.277344 746.15625 C 1506.296875 745.84375 1507.332031 745.585938 1508.382812 745.375 C 1509.429688 745.167969 1510.484375 745.011719 1511.546875 744.90625 C 1512.609375 744.800781 1513.675781 744.75 1514.746094 744.75 Z M 1645.230469 744.75 L 1645.238281 744.75 C 1646.304688 744.75 1647.371094 744.800781 1648.433594 744.90625 C 1649.496094 745.011719 1650.554688 745.167969 1651.601562 745.375 C 1652.648438 745.585938 1653.683594 745.84375 1654.707031 746.15625 C 1655.726562 746.464844 1656.734375 746.824219 1657.71875 747.234375 C 1658.707031 747.640625 1659.671875 748.097656 1660.613281 748.601562 C 1661.554688 749.105469 1662.472656 749.65625 1663.359375 750.25 C 1664.25 750.84375 1665.105469 751.476562 1665.929688 752.15625 C 1666.757812 752.832031 1667.546875 753.550781 1668.304688 754.304688 C 1669.058594 755.0625 1669.773438 755.851562 1670.453125 756.679688 C 1671.128906 757.503906 1671.765625 758.359375 1672.359375 759.25 C 1672.953125 760.136719 1673.5 761.054688 1674.003906 761.996094 C 1674.507812 762.9375 1674.964844 763.902344 1675.375 764.890625 C 1675.78125 765.878906 1676.140625 766.882812 1676.453125 767.90625 C 1676.761719 768.925781 1677.023438 769.960938 1677.230469 771.011719 C 1677.4375 772.058594 1677.59375 773.113281 1677.699219 774.175781 C 1677.804688 775.242188 1677.855469 776.304688 1677.855469 777.375 C 1677.855469 778.445312 1677.804688 779.507812 1677.699219 780.574219 C 1677.59375 781.636719 1677.4375 782.691406 1677.230469 783.738281 C 1677.023438 784.789062 1676.761719 785.824219 1676.453125 786.84375 C 1676.140625 787.867188 1675.78125 788.871094 1675.375 789.859375 C 1674.964844 790.847656 1674.507812 791.8125 1674.003906 792.753906 C 1673.5 793.695312 1672.953125 794.613281 1672.359375 795.5 C 1671.765625 796.390625 1671.128906 797.246094 1670.453125 798.070312 C 1669.773438 798.898438 1669.058594 799.6875 1668.304688 800.445312 C 1667.546875 801.199219 1666.757812 801.917969 1665.929688 802.59375 C 1665.105469 803.273438 1664.25 803.90625 1663.359375 804.5 C 1662.472656 805.09375 1661.554688 805.644531 1660.613281 806.148438 C 1659.671875 806.652344 1658.707031 807.109375 1657.71875 807.515625 C 1656.734375 807.925781 1655.726562 808.285156 1654.707031 808.59375 C 1653.683594 808.90625 1652.648438 809.164062 1651.601562 809.371094 C 1650.554688 809.582031 1649.496094 809.738281 1648.433594 809.84375 C 1647.371094 809.949219 1646.304688 810 1645.238281 810 L 1645.230469 810 C 1644.164062 810 1643.097656 809.949219 1642.035156 809.84375 C 1640.96875 809.738281 1639.914062 809.582031 1638.867188 809.371094 C 1637.820312 809.164062 1636.785156 808.90625 1635.761719 808.59375 C 1634.738281 808.285156 1633.734375 807.925781 1632.746094 807.515625 C 1631.761719 807.109375 1630.796875 806.652344 1629.855469 806.148438 C 1628.910156 805.644531 1627.996094 805.09375 1627.109375 804.5 C 1626.21875 803.90625 1625.363281 803.273438 1624.535156 802.59375 C 1623.710938 801.917969 1622.921875 801.199219 1622.164062 800.445312 C 1621.410156 799.6875 1620.691406 798.898438 1620.015625 798.070312 C 1619.335938 797.246094 1618.703125 796.390625 1618.109375 795.5 C 1617.515625 794.613281 1616.964844 793.695312 1616.460938 792.753906 C 1615.957031 791.8125 1615.503906 790.847656 1615.09375 789.859375 C 1614.683594 788.871094 1614.324219 787.867188 1614.015625 786.84375 C 1613.707031 785.824219 1613.445312 784.789062 1613.238281 783.738281 C 1613.027344 782.691406 1612.871094 781.636719 1612.769531 780.574219 C 1612.664062 779.507812 1612.609375 778.445312 1612.609375 777.375 C 1612.609375 776.304688 1612.664062 775.242188 1612.769531 774.175781 C 1612.871094 773.113281 1613.027344 772.058594 1613.238281 771.011719 C 1613.445312 769.960938 1613.707031 768.925781 1614.015625 767.90625 C 1614.324219 766.882812 1614.683594 765.878906 1615.09375 764.890625 C 1615.503906 763.902344 1615.957031 762.9375 1616.460938 761.996094 C 1616.964844 761.054688 1617.515625 760.136719 1618.109375 759.25 C 1618.703125 758.359375 1619.335938 757.503906 1620.015625 756.679688 C 1620.691406 755.851562 1621.410156 755.0625 1622.164062 754.304688 C 1622.921875 753.550781 1623.710938 752.832031 1624.535156 752.15625 C 1625.363281 751.476562 1626.21875 750.84375 1627.109375 750.25 C 1627.996094 749.65625 1628.910156 749.105469 1629.855469 748.601562 C 1630.796875 748.097656 1631.761719 747.640625 1632.746094 747.234375 C 1633.734375 746.824219 1634.738281 746.464844 1635.761719 746.15625 C 1636.785156 745.84375 1637.820312 745.585938 1638.867188 745.375 C 1639.914062 745.167969 1640.96875 745.011719 1642.035156 744.90625 C 1643.097656 744.800781 1644.164062 744.75 1645.230469 744.75 Z M 1775.714844 744.75 L 1775.722656 744.75 C 1776.792969 744.75 1777.855469 744.800781 1778.921875 744.90625 C 1779.984375 745.011719 1781.039062 745.167969 1782.085938 745.375 C 1783.132812 745.585938 1784.167969 745.84375 1785.191406 746.15625 C 1786.214844 746.464844 1787.21875 746.824219 1788.207031 747.234375 C 1789.191406 747.640625 1790.15625 748.097656 1791.101562 748.601562 C 1792.042969 749.105469 1792.957031 749.65625 1793.84375 750.25 C 1794.734375 750.84375 1795.589844 751.476562 1796.417969 752.15625 C 1797.242188 752.832031 1798.03125 753.550781 1798.789062 754.304688 C 1799.542969 755.0625 1800.261719 755.851562 1800.9375 756.679688 C 1801.617188 757.503906 1802.25 758.359375 1802.84375 759.25 C 1803.4375 760.136719 1803.988281 761.054688 1804.492188 761.996094 C 1804.996094 762.9375 1805.449219 763.902344 1805.859375 764.890625 C 1806.269531 765.878906 1806.628906 766.882812 1806.9375 767.90625 C 1807.25 768.925781 1807.507812 769.960938 1807.714844 771.011719 C 1807.925781 772.058594 1808.082031 773.113281 1808.183594 774.175781 C 1808.289062 775.242188 1808.34375 776.304688 1808.34375 777.375 C 1808.34375 778.445312 1808.289062 779.507812 1808.183594 780.574219 C 1808.082031 781.636719 1807.925781 782.691406 1807.714844 783.738281 C 1807.507812 784.789062 1807.25 785.824219 1806.9375 786.84375 C 1806.628906 787.867188 1806.269531 788.871094 1805.859375 789.859375 C 1805.449219 790.847656 1804.996094 791.8125 1804.492188 792.753906 C 1803.988281 793.695312 1803.4375 794.613281 1802.84375 795.5 C 1802.25 796.390625 1801.617188 797.246094 1800.9375 798.070312 C 1800.261719 798.898438 1799.542969 799.6875 1798.789062 800.445312 C 1798.03125 801.199219 1797.242188 801.917969 1796.417969 802.59375 C 1795.589844 803.273438 1794.734375 803.90625 1793.84375 804.5 C 1792.957031 805.09375 1792.042969 805.644531 1791.101562 806.148438 C 1790.15625 806.652344 1789.191406 807.109375 1788.207031 807.515625 C 1787.21875 807.925781 1786.214844 808.285156 1785.191406 808.59375 C 1784.167969 808.90625 1783.132812 809.164062 1782.085938 809.371094 C 1781.039062 809.582031 1779.984375 809.738281 1778.921875 809.84375 C 1777.855469 809.949219 1776.792969 810 1775.722656 810 L 1775.714844 810 C 1774.648438 810 1773.582031 809.949219 1772.519531 809.84375 C 1771.457031 809.738281 1770.398438 809.582031 1769.351562 809.371094 C 1768.304688 809.164062 1767.269531 808.90625 1766.246094 808.59375 C 1765.226562 808.285156 1764.21875 807.925781 1763.234375 807.515625 C 1762.246094 807.109375 1761.28125 806.652344 1760.339844 806.148438 C 1759.398438 805.644531 1758.480469 805.09375 1757.59375 804.5 C 1756.707031 803.90625 1755.847656 803.273438 1755.023438 802.59375 C 1754.195312 801.917969 1753.40625 801.199219 1752.652344 800.445312 C 1751.894531 799.6875 1751.179688 798.898438 1750.5 798.070312 C 1749.824219 797.246094 1749.1875 796.390625 1748.59375 795.5 C 1748 794.613281 1747.453125 793.695312 1746.949219 792.753906 C 1746.445312 791.8125 1745.988281 790.847656 1745.578125 789.859375 C 1745.171875 788.871094 1744.8125 787.867188 1744.5 786.84375 C 1744.191406 785.824219 1743.933594 784.789062 1743.722656 783.738281 C 1743.515625 782.691406 1743.359375 781.636719 1743.253906 780.574219 C 1743.148438 779.507812 1743.097656 778.445312 1743.097656 777.375 C 1743.097656 776.304688 1743.148438 775.242188 1743.253906 774.175781 C 1743.359375 773.113281 1743.515625 772.058594 1743.722656 771.011719 C 1743.933594 769.960938 1744.191406 768.925781 1744.5 767.90625 C 1744.8125 766.882812 1745.171875 765.878906 1745.578125 764.890625 C 1745.988281 763.902344 1746.445312 762.9375 1746.949219 761.996094 C 1747.453125 761.054688 1748 760.136719 1748.59375 759.25 C 1749.1875 758.359375 1749.824219 757.503906 1750.5 756.679688 C 1751.179688 755.851562 1751.894531 755.0625 1752.652344 754.304688 C 1753.40625 753.550781 1754.195312 752.832031 1755.023438 752.15625 C 1755.847656 751.476562 1756.707031 750.84375 1757.59375 750.25 C 1758.480469 749.65625 1759.398438 749.105469 1760.339844 748.601562 C 1761.28125 748.097656 1762.246094 747.640625 1763.234375 747.234375 C 1764.21875 746.824219 1765.226562 746.464844 1766.246094 746.15625 C 1767.269531 745.84375 1768.304688 745.585938 1769.351562 745.375 C 1770.398438 745.167969 1771.457031 745.011719 1772.519531 744.90625 C 1773.582031 744.800781 1774.648438 744.75 1775.714844 744.75 Z M 1775.714844 744.75 " fill-opacity="1" fill-rule="nonzero"/></svg>